<?xml version="1.0" encoding="UTF-8" standalone="no"?>
<svg
   xmlns:dc="http://purl.org/dc/elements/1.1/"
   xmlns:cc="http://creativecommons.org/ns#"
   xmlns:rdf="http://www.w3.org/1999/02/22-rdf-syntax-ns#"
   xmlns:svg="http://www.w3.org/2000/svg"
   xmlns="http://www.w3.org/2000/svg"
   viewBox="0 0 899.96869 352.06653"
   height="352.06653"
   width="899.96869"
   xml:space="preserve"
   id="svg2"
   version="1.1"><metadata
     id="metadata8"><rdf:RDF><cc:Work
         rdf:about=""><dc:format>image/svg+xml</dc:format><dc:type
           rdf:resource="http://purl.org/dc/dcmitype/StillImage" /></cc:Work></rdf:RDF></metadata><defs
     id="defs6"><clipPath
       id="clipPath14"
       clipPathUnits="userSpaceOnUse"><path
         id="path12"
         d="M 0,0 H 1024 V 768 H 0 Z" /></clipPath><clipPath
       id="clipPath26"
       clipPathUnits="userSpaceOnUse"><path
         id="path24"
         d="M 0,768 H 1024 V 0 H 0 Z" /></clipPath></defs><g
     clip-path="url(#clipPath14)"
     transform="matrix(1.3333333,0,0,-1.3333333,-230.2784,890.5988)"
     id="g10"><g
       transform="translate(210.3276,307.4465)"
       id="g16"><path
         id="path18"
         style="fill:#333333;fill-opacity:1;fill-rule:evenodd;stroke:none"
         d="m 0,0 v -127.45 h 126.634 l 46.073,46.073 V 44.537 H 47.215 Z" /></g><g
       id="g20"><g
         clip-path="url(#clipPath26)"
         id="g22"><g
           transform="translate(283.0745,261.4911)"
           id="g28"><path
             id="path30"
             style="fill:#ff3333;fill-opacity:1;fill-rule:evenodd;stroke:none"
             d="m 0,0 v -72.498 h 49.14 c -0.069,0.313 -0.106,0.639 -0.106,0.973 V 0 Z" /></g><path
           id="path32"
           style="fill:#f27907;fill-opacity:1;fill-rule:evenodd;stroke:none"
           d="m 268.378,261.491 h -49.053 v -72.498 h 49.053 z" /><g
           transform="translate(341.1053,303.6913)"
           id="g34"><path
             id="path36"
             style="fill:#ffffff;fill-opacity:1;fill-rule:evenodd;stroke:none"
             d="m 0,0 v -106.828 l 32.932,32.933 V 32.932 Z" /></g><path
           id="path38"
           style="fill:#4bdb69;fill-opacity:1;fill-rule:evenodd;stroke:none"
           d="m 219.325,275.276 h 112.783 v 25.329 H 219.325 Z" /><g
           transform="translate(261.1164,342.9857)"
           id="g40"><path
             id="path42"
             style="fill:#333333;fill-opacity:1;fill-rule:evenodd;stroke:none"
             d="M 0,0 -35.391,-33.383 H 73.176 L 106.56,0 Z" /></g><g
           transform="translate(760.3387,208.9326)"
           id="g44"><path
             id="path46"
             style="fill:#333333;fill-opacity:1;fill-rule:evenodd;stroke:none"
             d="m 0,0 -5.607,-5.418 c 0.151,-0.129 0.313,-0.248 0.488,-0.355 l 25.275,-15.506 h -387.182 l -7.641,-7.598 H 20.156 l -23.563,-14.457 5.642,-5.452 33.329,20.448 c 0.262,0.156 0.508,0.346 0.729,0.567 l 0.012,0.012 c 0.257,0.258 0.472,0.548 0.642,0.859 0.314,0.575 0.465,1.2 0.465,1.818 v 0.008 c 0,0.617 -0.151,1.242 -0.465,1.817 -0.17,0.311 -0.385,0.602 -0.642,0.859 l -0.012,0.012 c -0.221,0.221 -0.467,0.411 -0.729,0.568 z" /></g><g
           transform="translate(396.4697,238.0844)"
           id="g48"><path
             id="path50"
             style="fill:#333333;fill-opacity:1;fill-rule:nonzero;stroke:none"
             d="m 0,0 c 0.888,5.186 2.959,9.858 6.212,14.016 3.254,4.158 7.275,7.416 12.065,9.776 4.79,2.359 9.858,3.539 15.204,3.539 5.007,0 9.311,-0.97 12.913,-2.908 3.602,-1.939 6.319,-4.649 8.151,-8.13 1.832,-3.48 2.666,-7.463 2.5,-11.948 H 40.33 c -0.3,2.429 -1.37,4.368 -3.211,5.816 -1.841,1.449 -3.892,2.173 -6.15,2.173 -1.996,0 -3.99,-0.491 -5.984,-1.472 C 22.991,9.881 21.26,8.456 19.792,6.587 18.323,4.719 17.373,2.523 16.941,0 c -0.432,-2.523 -0.232,-4.707 0.6,-6.552 0.832,-1.846 2.077,-3.259 3.735,-4.24 1.658,-0.981 3.484,-1.472 5.48,-1.472 2.484,0 4.784,0.678 6.898,2.032 2.115,1.355 3.821,3.294 5.119,5.817 h 16.715 c -1.4,-4.438 -3.601,-8.386 -6.603,-11.843 -3.001,-3.458 -6.635,-6.156 -10.901,-8.094 -4.266,-1.939 -8.884,-2.909 -13.854,-2.909 -5.308,0 -9.96,1.192 -13.957,3.574 -3.996,2.383 -6.909,5.653 -8.738,9.811 C -0.394,-9.718 -0.872,-5.092 0,0" /></g><g
           transform="translate(488.8527,265.205)"
           id="g52"><path
             id="path54"
             style="fill:#333333;fill-opacity:1;fill-rule:nonzero;stroke:none"
             d="m 0,0 c 5.308,0 9.887,-1.18 13.737,-3.539 3.85,-2.359 6.626,-5.606 8.327,-9.741 1.701,-4.135 2.108,-8.795 1.219,-13.981 -0.88,-5.139 -2.877,-9.764 -5.99,-13.875 -3.114,-4.112 -7,-7.347 -11.658,-9.706 -4.658,-2.36 -9.641,-3.539 -14.949,-3.539 -5.083,0 -9.577,1.179 -13.483,3.539 -3.907,2.359 -6.777,5.606 -8.61,9.741 -1.833,4.134 -2.313,8.748 -1.441,13.84 0.881,5.139 2.947,9.788 6.201,13.946 3.253,4.158 7.237,7.417 11.952,9.776 C -9.981,-1.18 -5.082,0 0,0 m -6.713,-39.525 c 1.807,0 3.632,0.491 5.475,1.472 1.844,0.981 3.452,2.406 4.827,4.275 1.374,1.869 2.273,4.041 2.697,6.517 0.432,2.523 0.279,4.707 -0.459,6.553 -0.738,1.845 -1.861,3.258 -3.368,4.239 -1.507,0.982 -3.164,1.472 -4.971,1.472 -1.77,0 -3.576,-0.49 -5.419,-1.472 -1.844,-0.981 -3.46,-2.394 -4.849,-4.239 -1.389,-1.846 -2.299,-4.03 -2.731,-6.553 -0.425,-2.476 -0.26,-4.648 0.493,-6.517 0.753,-1.869 1.883,-3.294 3.39,-4.275 1.507,-0.981 3.145,-1.472 4.915,-1.472" /></g><g
           transform="translate(544.424,212.2252)"
           id="g56"><path
             id="path58"
             style="fill:#333333;fill-opacity:1;fill-rule:nonzero;stroke:none"
             d="m 0,0 -8.708,16.749 h -5.477 L -17.054,0 h -15.247 l 8.882,51.859 H 9.108 c 3.501,0 6.474,-0.725 8.917,-2.173 2.444,-1.448 4.187,-3.469 5.23,-6.062 1.043,-2.593 1.273,-5.594 0.688,-9.005 l -0.048,-0.28 C 23.135,29.9 21.462,26.233 18.877,23.336 16.291,20.44 13.07,18.501 9.212,17.52 L 18.353,0 Z m 9.044,34.339 c 0.24,1.401 0.16,2.417 -0.24,3.048 -0.401,0.631 -1.012,1.016 -1.835,1.156 -0.823,0.141 -2.101,0.211 -3.832,0.211 H 1.329 c -1.175,-0.047 -5.094,-0.07 -11.757,-0.07 l -1.465,-8.55 H 1.66 c 1.732,0 3.033,0.07 3.904,0.21 0.871,0.14 1.611,0.502 2.219,1.086 0.609,0.584 1.029,1.554 1.261,2.909" /></g><g
           transform="translate(613.0195,231.4269)"
           id="g60"><path
             id="path62"
             style="fill:#333333;fill-opacity:1;fill-rule:nonzero;stroke:none"
             d="m 0,0 h -24.903 l -0.925,-5.396 29.683,0.21 -2.4,-14.016 h -45.741 l 8.882,51.859 H 10.337 L 7.993,18.641 H -21.71 l -0.853,-4.976 H 2.341 Z" /></g><g
           transform="translate(727.5775,265.205)"
           id="g64"><path
             id="path66"
             style="fill:#333333;fill-opacity:1;fill-rule:nonzero;stroke:none"
             d="m 0,0 c 5.308,0 9.887,-1.18 13.737,-3.539 3.85,-2.359 6.626,-5.606 8.327,-9.741 1.701,-4.135 2.108,-8.795 1.219,-13.981 -0.88,-5.139 -2.877,-9.764 -5.99,-13.875 -3.114,-4.112 -7,-7.347 -11.658,-9.706 -4.658,-2.36 -9.641,-3.539 -14.949,-3.539 -5.083,0 -9.577,1.179 -13.483,3.539 -3.907,2.359 -6.777,5.606 -8.61,9.741 -1.833,4.134 -2.313,8.748 -1.441,13.84 0.881,5.139 2.947,9.788 6.201,13.946 3.253,4.158 7.237,7.417 11.952,9.776 C -9.981,-1.18 -5.082,0 0,0 m -6.713,-39.525 c 1.807,0 3.632,0.491 5.475,1.472 1.844,0.981 3.452,2.406 4.827,4.275 1.374,1.869 2.273,4.041 2.697,6.517 0.432,2.523 0.279,4.707 -0.459,6.553 -0.738,1.845 -1.861,3.258 -3.368,4.239 -1.507,0.982 -3.164,1.472 -4.971,1.472 -1.77,0 -3.576,-0.49 -5.419,-1.472 -1.844,-0.981 -3.46,-2.394 -4.849,-4.239 -1.389,-1.846 -2.299,-4.03 -2.731,-6.553 -0.425,-2.476 -0.26,-4.648 0.493,-6.517 0.752,-1.869 1.883,-3.294 3.39,-4.275 1.507,-0.981 3.145,-1.472 4.915,-1.472" /></g><g
           transform="translate(691.2656,216.453)"
           id="g68"><path
             id="path70"
             style="fill:#4bdb69;fill-opacity:1;fill-rule:nonzero;stroke:none"
             d="m 0,0 -2.146,11.969 c 0.101,0.232 0.214,0.458 0.31,0.692 l -0.463,0.164 -2.165,12.077 -22.79,-5.107 5.607,-4.073 c -0.462,-0.973 -1,-1.897 -1.635,-2.76 -1.659,-2.257 -3.602,-3.978 -5.828,-5.162 -2.226,-1.185 -4.431,-1.778 -6.613,-1.778 -2.137,0 -4.115,0.593 -5.936,1.778 -1.82,1.184 -3.184,2.905 -4.094,5.162 -0.909,2.257 -1.107,4.881 -0.595,7.871 0.522,3.047 1.621,5.685 3.299,7.913 1.677,2.229 3.629,3.936 5.855,5.121 2.226,1.184 4.408,1.777 6.545,1.777 2.182,0 4.183,-0.593 6.003,-1.777 1.093,-0.711 1.997,-1.634 2.754,-2.721 L -3.747,42.76 c -1.905,2.671 -4.329,4.913 -7.278,6.721 -4.65,2.849 -10.18,4.274 -16.591,4.274 -6.137,0 -12.053,-1.425 -17.747,-4.274 -5.693,-2.849 -10.505,-6.785 -14.434,-11.806 -3.929,-5.022 -6.425,-10.636 -7.488,-16.842 -1.053,-6.15 -0.473,-11.722 1.741,-16.715 2.213,-4.993 5.679,-8.914 10.397,-11.764 4.717,-2.849 10.145,-4.274 16.283,-4.274 6.41,0 12.428,1.425 18.054,4.274 5.625,2.85 10.318,6.757 14.078,11.722 0.134,0.176 0.251,0.359 0.38,0.537 z" /></g><g
           transform="translate(211.229,580.5916)"
           id="g72"><path
             id="path74"
             style="fill:#333333;fill-opacity:1;fill-rule:evenodd;stroke:none"
             d="m 0,0 v -127.45 h 126.634 l 46.073,46.073 V 44.536 H 47.215 Z" /></g><g
           transform="translate(282.0762,534.6361)"
           id="g76"><path
             id="path78"
             style="fill:#ff3333;fill-opacity:1;fill-rule:evenodd;stroke:none"
             d="m 0,0 v -72.498 h 51.04 c -0.07,0.314 -0.107,0.639 -0.107,0.973 V 0 Z" /></g><path
           id="path80"
           style="fill:#f27907;fill-opacity:1;fill-rule:evenodd;stroke:none"
           d="m 273.079,534.636 h -52.853 v -72.498 h 52.853 z" /><g
           transform="translate(342.0067,576.8363)"
           id="g82"><path
             id="path84"
             style="fill:#ffffff;fill-opacity:1;fill-rule:evenodd;stroke:none"
             d="m 0,0 v -106.828 l 32.932,32.933 V 32.932 Z" /></g><path
           id="path86"
           style="fill:#4bdb69;fill-opacity:1;fill-rule:evenodd;stroke:none"
           d="m 220.226,543.633 h 112.783 v 30.116 H 220.226 Z" /><g
           transform="translate(262.0178,616.1308)"
           id="g88"><path
             id="path90"
             style="fill:#ffffff;fill-opacity:1;fill-rule:evenodd;stroke:none"
             d="M 0,0 -35.391,-33.383 H 73.176 L 106.56,0 Z" /></g><g
           transform="translate(765.8885,482.0777)"
           id="g92"><path
             id="path94"
             style="fill:#333333;fill-opacity:1;fill-rule:evenodd;stroke:none"
             d="m 0,0 -5.607,-5.418 c 0.151,-0.129 0.313,-0.248 0.488,-0.355 l 25.275,-15.506 h -387.182 l -7.641,-7.598 H 20.156 l -23.563,-14.457 5.642,-5.452 33.329,20.448 c 0.262,0.156 0.508,0.346 0.729,0.567 l 0.012,0.012 c 0.257,0.258 0.472,0.548 0.642,0.859 0.314,0.575 0.465,1.2 0.465,1.818 v 0.008 c 0,0.617 -0.151,1.242 -0.465,1.817 -0.17,0.311 -0.385,0.602 -0.642,0.859 l -0.012,0.012 c -0.221,0.221 -0.467,0.411 -0.729,0.568 z" /></g><g
           transform="translate(395.0469,513.5536)"
           id="g96"><path
             id="path98"
             style="fill:#333333;fill-opacity:1;fill-rule:nonzero;stroke:none"
             d="m 0,0 c 0.888,5.186 2.959,9.858 6.212,14.016 3.254,4.158 7.275,7.417 12.065,9.776 4.79,2.359 9.858,3.539 15.204,3.539 5.007,0 9.311,-0.97 12.913,-2.908 3.602,-1.939 6.319,-4.649 8.151,-8.13 1.833,-3.48 2.666,-7.463 2.5,-11.948 H 40.33 c -0.3,2.429 -1.37,4.368 -3.211,5.816 -1.841,1.449 -3.891,2.173 -6.15,2.173 -1.996,0 -3.99,-0.491 -5.984,-1.472 C 22.991,9.881 21.26,8.456 19.792,6.587 18.323,4.719 17.373,2.523 16.941,0 c -0.432,-2.523 -0.232,-4.707 0.6,-6.552 0.832,-1.846 2.077,-3.259 3.735,-4.24 1.658,-0.981 3.484,-1.472 5.48,-1.472 2.484,0 4.784,0.678 6.898,2.032 2.115,1.355 3.821,3.294 5.119,5.817 h 16.715 c -1.4,-4.438 -3.601,-8.386 -6.603,-11.843 -3.001,-3.458 -6.635,-6.156 -10.901,-8.094 -4.266,-1.939 -8.884,-2.909 -13.854,-2.909 -5.308,0 -9.96,1.192 -13.957,3.574 -3.996,2.383 -6.909,5.653 -8.738,9.811 C -0.394,-9.718 -0.872,-5.092 0,0" /></g><g
           transform="translate(487.4299,540.6743)"
           id="g100"><path
             id="path102"
             style="fill:#333333;fill-opacity:1;fill-rule:nonzero;stroke:none"
             d="m 0,0 c 5.308,0 9.887,-1.18 13.737,-3.539 3.85,-2.359 6.626,-5.606 8.327,-9.741 1.701,-4.135 2.108,-8.795 1.219,-13.981 -0.88,-5.139 -2.877,-9.764 -5.99,-13.875 -3.114,-4.112 -7,-7.347 -11.658,-9.706 -4.658,-2.36 -9.641,-3.539 -14.949,-3.539 -5.083,0 -9.577,1.179 -13.483,3.539 -3.907,2.359 -6.777,5.606 -8.61,9.741 -1.833,4.134 -2.313,8.748 -1.441,13.84 0.881,5.139 2.947,9.788 6.201,13.946 3.253,4.158 7.237,7.417 11.952,9.776 C -9.981,-1.18 -5.082,0 0,0 m -6.713,-39.525 c 1.807,0 3.632,0.491 5.475,1.472 1.844,0.981 3.452,2.406 4.827,4.275 1.374,1.869 2.273,4.041 2.697,6.517 0.432,2.523 0.279,4.707 -0.459,6.553 -0.738,1.845 -1.861,3.258 -3.368,4.239 -1.507,0.982 -3.164,1.472 -4.971,1.472 -1.77,0 -3.576,-0.49 -5.419,-1.472 -1.844,-0.981 -3.46,-2.394 -4.849,-4.239 -1.389,-1.846 -2.299,-4.03 -2.731,-6.553 -0.425,-2.476 -0.26,-4.648 0.493,-6.517 0.753,-1.869 1.883,-3.294 3.39,-4.275 1.507,-0.981 3.145,-1.472 4.915,-1.472" /></g><g
           transform="translate(543.0011,487.6945)"
           id="g104"><path
             id="path106"
             style="fill:#333333;fill-opacity:1;fill-rule:nonzero;stroke:none"
             d="m 0,0 -8.708,16.749 h -5.477 L -17.054,0 h -15.247 l 8.882,51.858 H 9.108 c 3.501,0 6.474,-0.724 8.917,-2.172 2.444,-1.448 4.187,-3.469 5.23,-6.062 1.043,-2.593 1.273,-5.594 0.688,-9.005 l -0.048,-0.28 C 23.135,29.9 21.462,26.233 18.877,23.336 16.291,20.44 13.07,18.501 9.213,17.52 L 18.353,0 Z m 9.044,34.339 c 0.24,1.401 0.16,2.418 -0.24,3.048 -0.401,0.631 -1.012,1.016 -1.835,1.156 -0.823,0.141 -2.101,0.211 -3.832,0.211 H 1.33 c -1.176,-0.047 -5.095,-0.07 -11.758,-0.07 l -1.465,-8.55 H 1.66 c 1.732,0 3.033,0.07 3.904,0.21 0.871,0.14 1.611,0.502 2.219,1.086 0.609,0.584 1.029,1.554 1.261,2.909" /></g><g
           transform="translate(611.5966,506.8961)"
           id="g108"><path
             id="path110"
             style="fill:#333333;fill-opacity:1;fill-rule:nonzero;stroke:none"
             d="m 0,0 h -24.903 l -0.924,-5.396 29.682,0.21 -2.4,-14.016 h -45.741 l 8.882,51.859 H 10.337 L 7.993,18.641 H -21.71 l -0.853,-4.976 H 2.341 Z" /></g><g
           transform="translate(738.3475,540.6743)"
           id="g112"><path
             id="path114"
             style="fill:#333333;fill-opacity:1;fill-rule:nonzero;stroke:none"
             d="m 0,0 c 5.308,0 9.887,-1.18 13.737,-3.539 3.85,-2.359 6.626,-5.606 8.327,-9.741 1.701,-4.135 2.108,-8.795 1.219,-13.981 -0.88,-5.139 -2.877,-9.764 -5.99,-13.875 -3.114,-4.112 -7,-7.347 -11.658,-9.706 -4.658,-2.36 -9.641,-3.539 -14.949,-3.539 -5.083,0 -9.577,1.179 -13.483,3.539 -3.907,2.359 -6.777,5.606 -8.61,9.741 -1.833,4.134 -2.313,8.748 -1.441,13.84 0.881,5.139 2.947,9.788 6.201,13.946 3.253,4.158 7.237,7.417 11.952,9.776 C -9.981,-1.18 -5.082,0 0,0 m -6.713,-39.525 c 1.807,0 3.632,0.491 5.475,1.472 1.844,0.981 3.452,2.406 4.827,4.275 1.374,1.869 2.273,4.041 2.697,6.517 0.432,2.523 0.279,4.707 -0.459,6.553 -0.738,1.845 -1.861,3.258 -3.368,4.239 -1.507,0.982 -3.164,1.472 -4.971,1.472 -1.77,0 -3.576,-0.49 -5.419,-1.472 -1.844,-0.981 -3.46,-2.394 -4.849,-4.239 -1.389,-1.846 -2.299,-4.03 -2.731,-6.553 -0.425,-2.476 -0.26,-4.648 0.493,-6.517 0.753,-1.869 1.883,-3.294 3.39,-4.275 1.507,-0.981 3.145,-1.472 4.915,-1.472" /></g><g
           transform="translate(700.3394,493.6096)"
           id="g116"><path
             id="path118"
             style="fill:#333333;fill-opacity:1;fill-rule:nonzero;stroke:none"
             d="m 0,0 -2.449,13.663 c 0.114,0.265 0.243,0.523 0.353,0.791 l -0.529,0.186 -2.471,13.787 -26.016,-5.83 6.401,-4.649 c -0.528,-1.111 -1.142,-2.166 -1.867,-3.151 -1.894,-2.576 -4.112,-4.541 -6.653,-5.893 -2.541,-1.353 -5.058,-2.029 -7.549,-2.029 -2.439,0 -4.698,0.676 -6.776,2.029 -2.078,1.352 -3.635,3.317 -4.673,5.893 -1.038,2.577 -1.265,5.571 -0.68,8.985 0.595,3.478 1.851,6.489 3.766,9.033 1.915,2.545 4.143,4.493 6.684,5.846 2.541,1.352 5.032,2.028 7.471,2.028 2.491,0 4.776,-0.676 6.854,-2.028 1.246,-0.812 2.279,-1.865 3.144,-3.106 l 20.713,13.258 c -2.175,3.049 -4.942,5.609 -8.309,7.673 -5.308,3.252 -11.621,4.879 -18.939,4.879 -7.006,0 -13.759,-1.627 -20.259,-4.879 -6.5,-3.253 -11.992,-7.745 -16.477,-13.478 -4.486,-5.732 -7.335,-12.141 -8.548,-19.226 -1.203,-7.02 -0.541,-13.381 1.986,-19.081 2.527,-5.7 6.484,-10.176 11.869,-13.429 5.386,-3.253 11.582,-4.879 18.588,-4.879 7.318,0 14.188,1.626 20.61,4.879 6.422,3.253 11.779,7.713 16.072,13.381 0.152,0.201 0.285,0.41 0.433,0.613 z" /></g></g></g></g></svg>