<?xml version="1.0" standalone="no"?>
<!DOCTYPE svg PUBLIC "-//W3C//DTD SVG 20010904//EN"
 "http://www.w3.org/TR/2001/REC-SVG-20010904/DTD/svg10.dtd">
<svg version="1.0" xmlns="http://www.w3.org/2000/svg"
 width="2501.000000pt" height="2501.000000pt" viewBox="0 0 2501.000000 2501.000000"
 preserveAspectRatio="xMidYMid meet">

<g transform="translate(0.000000,2501.000000) scale(0.100000,-0.100000)"
fill="#000000" stroke="none">
<path d="M1895 12723 c-3 -3046 -6 -5597 -7 -5669 l-3 -130 89 -155 c187 -325
340 -533 472 -641 154 -125 2567 -1533 7259 -4233 269 -155 916 -521 1650
-935 286 -161 582 -328 659 -372 76 -43 141 -76 145 -73 12 12 13 3409 1 4320
-14 1122 -21 1326 -45 1379 -61 140 -238 317 -475 475 -146 98 -607 369 -1420
834 -1069 611 -1538 887 -2015 1187 -380 238 -533 342 -611 414 -83 76 -199
217 -274 331 -72 111 -173 320 -214 445 -46 139 -63 245 -75 480 -28 532 -33
968 -28 2305 6 1441 -1 1988 -27 2164 -29 190 -79 365 -133 461 -60 106 -77
119 -461 353 -826 503 -1373 822 -3307 1927 -638 364 -1163 664 -1167 667 -4
2 -10 -2488 -13 -5534z"/>
<path d="M12312 18039 c-89 -8 -160 -28 -232 -64 -84 -42 -918 -513 -1403
-792 -804 -462 -2892 -1683 -2895 -1693 -2 -5 10 -16 26 -24 17 -9 504 -291
1084 -627 2091 -1215 3166 -1822 3293 -1862 60 -19 93 -22 230 -22 180 0 259
15 380 70 184 84 1345 741 3343 1893 876 505 981 568 965 580 -36 27 -2504
1458 -3128 1814 -444 253 -956 541 -1105 621 -95 51 -226 93 -322 102 -127 12
-155 12 -236 4z"/>
<path d="M7501 12837 c0 -1222 4 -2377 8 -2567 l7 -345 36 -102 c75 -217 121
-266 413 -437 994 -585 1553 -909 3130 -1811 479 -274 923 -529 987 -566 l117
-67 7 46 c11 71 -4 4736 -15 4882 -19 247 -91 449 -193 546 -72 69 -1327 809
-3650 2152 l-848 490 1 -2221z"/>
<path d="M16189 14365 c-1595 -912 -2085 -1195 -2840 -1646 -332 -198 -373
-225 -428 -285 -91 -100 -165 -260 -211 -459 -7 -30 -15 -228 -20 -500 -9
-489 -13 -4525 -5 -4525 3 0 157 87 343 194 185 106 645 370 1022 586 835 479
1814 1044 2165 1249 143 84 392 230 554 324 240 141 306 184 361 237 77 76
131 155 174 254 29 69 30 76 37 286 11 325 21 4473 12 4725 l-8 221 -1156
-661z"/>
</g>
</svg>
